<?xml version="1.0" encoding="UTF-8" standalone="no"?>
<!-- Created with Inkscape (http://www.inkscape.org/) -->

<svg
   xmlns:dc="http://purl.org/dc/elements/1.1/"
   xmlns:cc="http://creativecommons.org/ns#"
   xmlns:rdf="http://www.w3.org/1999/02/22-rdf-syntax-ns#"
   xmlns:svg="http://www.w3.org/2000/svg"
   xmlns="http://www.w3.org/2000/svg"
   version="1.1"
   width="892.91339"
   height="314.29132"
   id="svg5704">
  <defs
     id="defs5706">
    <clipPath
       id="clipPath5112">
      <path
         d="m 466.016,10.239 115.801,0 0,51.84 -115.801,0 0,-51.84 z"
         id="path5114" />
    </clipPath>
  </defs>
  <metadata
     id="metadata5709">
    <rdf:RDF>
      <cc:Work
         rdf:about="">
        <dc:format>image/svg+xml</dc:format>
        <dc:type
           rdf:resource="http://purl.org/dc/dcmitype/StillImage" />
        <dc:title></dc:title>
      </cc:Work>
    </rdf:RDF>
  </metadata>
  <g
     transform="translate(31.707696,-356.12699)"
     id="layer1">
    <g
       transform="matrix(7.3477076,0,0,7.3477076,-970.81873,821.3145)"
       id="g5781">
      <g
         transform="matrix(1.25,0,0,-1.25,224.22354,-60.208474)"
         id="g5104">
        <path
           d="m 0,0 2.541,0 0,0.936 -8.856,0 0,-0.936 2.555,0 0,-17.813 -2.555,0 0,-0.928 8.856,0 0,0.928 -2.541,0 L 0,0 z"
           id="path5106"
           style="fill:#000000;fill-opacity:1;fill-rule:nonzero;stroke:none" />
      </g>
      <g
         transform="matrix(1.25,0,0,-1.25,-466.52532,3.9224058)"
         id="g5108">
        <g
           clip-path="url(#clipPath5112)"
           id="g5110">
          <g
             transform="translate(568.7147,32.5637)"
             id="g5116">
            <path
               d="m 0,0 0,0.924 -2.714,0 0,18.015 c 4.148,0.207 4.857,-0.681 5.389,-4.446 l 0.911,0 -0.323,5.184 -15.756,0 -0.321,-5.184 0.935,0 c 0.536,3.765 1.236,4.653 5.392,4.446 l 0,-18.015 -2.716,0 L -9.203,0 0,0"
               id="path5118"
               style="fill:#000000;fill-opacity:1;fill-rule:nonzero;stroke:none" />
          </g>
          <g
             transform="translate(544.5986,51.3118)"
             id="g5120">
            <path
               d="m 0,0 0,0.929 -7.258,0 -4.266,-13.458 -4.119,13.458 -7.231,0 0,-0.929 2.543,0 0,-17.825 -2.747,0.003 c -2.552,-0.062 -2.591,2.113 -2.58,2.563 0.035,4.797 -1.036,6.543 -5.633,7.253 l 0,0.064 c 2.742,0.29 6.247,1.07 6.247,4.394 0,4.092 -3.82,4.477 -7.042,4.477 l -9.487,0 0,-0.929 2.54,0 0,-17.822 -2.54,0 0,-0.926 8.851,0 0,0.926 -2.54,0 0,9.396 c 1.632,0.065 3.471,-0.352 4.301,-1.066 0.767,-0.65 1.18,-2.67 1.18,-5.108 0,-3.009 1.553,-4.148 4.533,-4.148 l 8.53,0 0,0.923 -2.485,0 0,17.52 0.061,0 5.858,-18.443 0.995,0 5.895,18.443 0.089,0 0,-17.52 -2.534,0 0,-0.923 8.839,0 0,0.923 -2.536,0 L -2.536,0 0,0 z m -35.262,-7.507 0,7.507 2.563,0 c 2.624,0 3.593,-0.659 3.593,-3.968 0,-2.639 -1.088,-3.539 -3.741,-3.539 l -2.415,0"
               id="path5122"
               style="fill:#000000;fill-opacity:1;fill-rule:nonzero;stroke:none" />
          </g>
          <g
             transform="translate(487.3641,53.408)"
             id="g5124">
            <path
               d="m 0,0 -2.938,0 0,-2.387 -4.892,0 0,-4.977 -3.68,0 0,-7.309 3.68,0 0,-4.978 4.892,0 0,-2.38 2.59,0 c 6.052,0 11.391,4.885 11.391,10.988 C 11.043,-4.982 6.062,0 0,0"
               id="path5126"
               style="fill:#e42a20;fill-opacity:1;fill-rule:nonzero;stroke:none" />
          </g>
          <g
             transform="translate(505.5656,26.6105)"
             id="g5128">
            <path
               d="m 0,0 c 0,0.164 -0.088,0.24 -0.24,0.24 l -0.47,0 0,0.94 1.103,0 c 0.492,0 0.7,-0.208 0.7,-0.7 l 0,-4.272 c 0,-1.157 0.731,-1.847 1.846,-1.847 1.114,0 1.847,0.69 1.847,1.858 l 0,4.261 c 0,0.492 0.218,0.7 0.709,0.7 l 1.093,0 0,-0.94 -0.47,0 C 5.965,0.24 5.879,0.164 5.879,0 l 0,-3.835 c 0,-1.682 -1.17,-2.83 -2.929,-2.83 -1.77,0 -2.95,1.148 -2.95,2.83 L 0,0 z"
               id="path5130"
               style="fill:#000000;fill-opacity:1;fill-rule:nonzero;stroke:none" />
          </g>
          <g
             transform="translate(512.8934,21.0164)"
             id="g5132">
            <path
               d="M 0,0 0.469,0 C 0.623,0 0.71,0.088 0.71,0.24 l 0,6.534 0.994,0 L 5.135,1.89 C 5.419,1.475 5.78,0.841 5.78,0.841 l 0.021,0 c 0,0 -0.076,0.612 -0.076,1.049 l 0,4.184 c 0,0.492 0.207,0.7 0.71,0.7 l 1.093,0 0,-0.94 -0.47,0 c -0.153,0 -0.24,-0.076 -0.24,-0.24 l 0,-6.534 -0.984,0 -3.441,4.883 C 2.109,4.36 1.759,4.993 1.759,4.993 l -0.022,0 c 0,0 0.066,-0.623 0.066,-1.05 l 0,-4.183 c 0,-0.492 -0.209,-0.7 -0.7,-0.7 L 0,-0.94 0,0 z"
               id="path5134"
               style="fill:#000000;fill-opacity:1;fill-rule:nonzero;stroke:none" />
          </g>
          <g
             transform="translate(521.6069,21.0164)"
             id="g5136">
            <path
               d="m 0,0 0.754,0 0,5.834 -0.754,0 0,0.94 2.546,0 0,-0.94 -0.754,0 0,-5.834 0.754,0 0,-0.94 L 0,-0.94 0,0 z"
               id="path5138"
               style="fill:#000000;fill-opacity:1;fill-rule:nonzero;stroke:none" />
          </g>
          <g
             transform="translate(525.3431,26.6105)"
             id="g5140">
            <path
               d="m 0,0 c -0.065,0.197 -0.175,0.24 -0.359,0.24 l -0.153,0 0,0.94 0.611,0 c 0.546,0 0.733,-0.121 0.907,-0.634 l 1.693,-4.753 c 0.143,-0.415 0.296,-1.059 0.296,-1.059 l 0.022,0 c 0,0 0.141,0.644 0.295,1.059 L 5.005,0.546 C 5.19,1.059 5.365,1.18 5.911,1.18 l 0.612,0 0,-0.94 -0.152,0 C 6.173,0.24 6.076,0.197 6.01,0 l -2.426,-6.534 -1.158,0 L 0,0 z"
               id="path5142"
               style="fill:#000000;fill-opacity:1;fill-rule:nonzero;stroke:none" />
          </g>
          <g
             transform="translate(533.2109,26.8508)"
             id="g5144">
            <path
               d="m 0,0 -0.709,0 0,0.939 4.535,0 c 0.491,0 0.698,-0.207 0.698,-0.699 l 0,-0.972 -0.995,0 0,0.492 C 3.529,-0.076 3.442,0 3.289,0 l -2.195,0 0,-2.415 2.697,0 0,-0.939 -2.697,0 0,-2.24 c 0,-0.152 0.087,-0.24 0.24,-0.24 l 2.25,0 c 0.154,0 0.242,0.088 0.242,0.24 l 0,0.492 1.004,0 0,-0.972 c 0,-0.493 -0.207,-0.7 -0.699,-0.7 l -3.431,0 c -0.492,0 -0.7,0.207 -0.7,0.7 L 0,0 z"
               id="path5146"
               style="fill:#000000;fill-opacity:1;fill-rule:nonzero;stroke:none" />
          </g>
          <g
             transform="translate(542.0873,24.086)"
             id="g5148">
            <path
               d="m 0,0 c 0.83,0 1.321,0.536 1.321,1.399 0,0.864 -0.491,1.366 -1.3,1.366 l -1.442,0 L -1.421,0 0,0 z m -2.514,2.765 -0.71,0 0,0.939 3.365,0 c 1.355,0 2.306,-0.852 2.306,-2.262 0,-1.288 -0.841,-1.923 -1.388,-2.042 l 0,-0.022 c 0,0 0.198,-0.098 0.327,-0.35 l 0.93,-1.846 C 2.426,-3.048 2.6,-3.07 2.862,-3.07 l 0.143,0 0,-0.939 -0.537,0 c -0.6,0 -0.819,0.076 -1.069,0.579 L 0.35,-1.355 c -0.197,0.361 -0.34,0.416 -0.766,0.416 l -1.005,0 0,-3.07 -1.093,0 0,6.774 z"
               id="path5150"
               style="fill:#000000;fill-opacity:1;fill-rule:nonzero;stroke:none" />
          </g>
          <g
             transform="translate(546.4899,21.8685)"
             id="g5152">
            <path
               d="m 0,0 c 0,0 0.787,-0.929 1.933,-0.929 0.722,0 1.324,0.438 1.324,1.148 0,1.617 -3.727,1.366 -3.727,3.769 0,1.158 1.016,2.065 2.47,2.065 0.82,0 2.195,-0.372 2.195,-1.42 l 0,-0.635 -1.004,0 0,0.361 c 0,0.405 -0.579,0.7 -1.191,0.7 -0.831,0 -1.355,-0.459 -1.355,-1.038 0,-1.563 3.715,-1.213 3.715,-3.747 0,-1.181 -0.919,-2.197 -2.447,-2.197 -1.64,0 -2.557,1.148 -2.557,1.148 L 0,0 z"
               id="path5154"
               style="fill:#000000;fill-opacity:1;fill-rule:nonzero;stroke:none" />
          </g>
          <g
             transform="translate(551.9955,21.0164)"
             id="g5156">
            <path
               d="m 0,0 0.754,0 0,5.834 -0.754,0 0,0.94 2.547,0 0,-0.94 -0.755,0 0,-5.834 0.755,0 0,-0.94 L 0,-0.94 0,0 z"
               id="path5158"
               style="fill:#000000;fill-opacity:1;fill-rule:nonzero;stroke:none" />
          </g>
          <g
             transform="translate(558.017,26.8508)"
             id="g5160">
            <path
               d="m 0,0 -1.552,0 c -0.153,0 -0.24,-0.076 -0.24,-0.24 l 0,-0.492 -0.972,0 0,1.016 c 0,0.491 0.163,0.655 0.655,0.655 l 5.311,0 c 0.49,0 0.655,-0.164 0.655,-0.655 l 0,-1.016 -0.972,0 0,0.492 C 2.885,-0.076 2.798,0 2.644,0 l -1.552,0 0,-6.774 L 0,-6.774 0,0 z"
               id="path5162"
               style="fill:#000000;fill-opacity:1;fill-rule:nonzero;stroke:none" />
          </g>
          <g
             transform="translate(564.9893,23.4417)"
             id="g5164">
            <path
               d="m 0,0 -1.956,3.136 c -0.142,0.23 -0.241,0.273 -0.471,0.273 l -0.218,0 0,0.94 0.502,0 c 0.525,0 0.732,-0.077 1.039,-0.591 L 0.065,1.813 C 0.317,1.388 0.535,0.95 0.535,0.95 l 0.022,0 c 0,0 0.207,0.438 0.469,0.863 l 1.16,1.945 C 2.49,4.272 2.709,4.349 3.222,4.349 l 0.503,0 0,-0.94 -0.209,0 C 3.288,3.409 3.179,3.366 3.037,3.136 L 1.091,0 1.091,-3.365 0,-3.365 0,0 z"
               id="path5166"
               style="fill:#000000;fill-opacity:1;fill-rule:nonzero;stroke:none" />
          </g>
        </g>
      </g>
    </g>
  </g>
</svg>
